<?xml version="1.0" standalone="no"?>
<!DOCTYPE svg PUBLIC "-//W3C//DTD SVG 20010904//EN"
 "https://www.w3.org/TR/2001/REC-SVG-20010904/DTD/svg10.dtd">
<svg version="1.0" xmlns="https://www.w3.org/2000/svg"
 width="145.000000pt" height="145.000000pt" viewBox="0 0 145.000000 145.000000"
 preserveAspectRatio="xMidYMid meet">
<metadata>
Created by potrace 1.11, written by Peter Selinger 2001-2013
</metadata>
<g transform="translate(0.000000,145.000000) scale(0.100000,-0.100000)"
fill="#000000" stroke="none">
<path d="M250 1243 c-70 -30 -127 -102 -154 -193 -25 -83 -21 -137 13 -189 35
-52 36 -48 -45 -160 -66 -90 -68 -112 -14 -146 22 -14 43 -25 48 -25 5 0 8
-24 6 -53 -2 -37 2 -57 13 -70 15 -16 15 -20 -5 -56 -29 -52 -28 -96 3 -126
23 -24 28 -25 179 -25 l155 0 -24 25 c-31 30 -32 72 -4 126 l20 41 -20 22
c-12 13 -18 26 -14 30 4 4 8 23 8 43 0 32 -4 37 -46 59 -26 13 -49 31 -53 40
-7 19 21 70 83 153 23 30 41 63 41 74 0 11 -12 36 -26 55 -24 31 -26 40 -22
105 7 114 68 220 150 263 34 18 38 18 38 -1 0 -8 9 -15 20 -15 12 0 32 -11 45
-25 l25 -24 0 -444 c0 -490 3 -466 -62 -482 -18 -5 -28 -14 -28 -26 0 -18 10
-19 195 -19 164 0 195 2 195 15 0 8 -16 19 -40 25 -23 6 -45 20 -52 33 -9 15
-14 86 -16 229 l-4 207 146 3 146 3 0 -215 c-1 -238 -2 -244 -64 -261 -20 -6
-36 -16 -36 -24 0 -13 31 -15 195 -15 164 0 195 2 195 15 0 8 -16 18 -36 24
-66 18 -63 0 -64 492 0 428 1 446 20 466 10 12 33 24 50 28 16 4 30 13 30 21
0 12 -33 14 -195 14 -168 0 -195 -2 -195 -15 0 -9 12 -18 30 -22 17 -3 39 -17
50 -31 18 -23 20 -41 20 -219 l0 -194 -142 3 -143 3 0 190 c0 215 3 228 65
246 22 7 40 18 40 26 0 21 -671 17 -720 -4z"/>
</g>
</svg>
